<svg width="24" height="24" viewBox="0 0 24 24" fill="none" xmlns="http://www.w3.org/2000/svg">
<path d="M17.5994 19.8334C16.8225 19.5045 15.728 19.2436 14.4406 19.0848C14.2988 19.0678 14.157 19.1245 14.0663 19.2379C13.9756 19.357 13.9586 19.5045 14.0153 19.6406C14.072 19.7767 14.1911 19.8674 14.3385 19.8844C15.1155 19.9809 15.813 20.117 16.4142 20.2814C17.6391 20.6217 18.1949 21.0414 18.1949 21.2909C18.1949 21.5404 17.6391 21.9544 16.4142 22.3004C15.1098 22.6633 13.3688 22.8675 11.5086 22.8675C9.64847 22.8675 7.90743 22.669 6.60306 22.3004C5.37809 21.9601 4.82232 21.5404 4.82232 21.2909C4.82232 21.0414 5.37809 20.6274 6.60306 20.2814C7.20988 20.1113 7.90743 19.9809 8.6787 19.8844C8.82615 19.8674 8.94525 19.7767 9.00196 19.6406C9.05867 19.5045 9.04166 19.3514 8.94525 19.2323C8.86018 19.1188 8.71273 19.0621 8.57095 19.0791C7.75431 19.1812 7.01706 19.323 6.37621 19.4988C4.79963 19.9412 4 20.5423 4 21.2909C4 22.0395 4.85634 22.6803 6.47262 23.1113C7.82236 23.4743 9.65414 23.6785 11.4973 23.6785C13.3404 23.6785 15.2459 23.4686 16.624 23.083C18.2006 22.6406 19.0002 22.0395 19.0002 21.2909C19.0002 20.7181 18.5238 20.2247 17.5881 19.8277L17.5994 19.8334Z" fill="black"/>
<path d="M16.7653 3.19474C15.3645 1.78262 13.4987 1 11.5251 1H11.5138C9.53453 1 7.68006 1.77128 6.27929 3.16638C4.87284 4.56716 4.10156 6.4273 4.10156 8.40653C4.10156 9.78462 4.48153 11.1287 5.20177 12.2913V12.3026C5.23012 12.331 5.7065 13.0172 5.87096 13.21L10.7028 19.471C10.8956 19.7262 11.1905 19.8679 11.5138 19.8679C11.837 19.8679 12.1262 19.7205 12.3247 19.471L17.1509 13.2157C17.3154 13.0229 17.7974 12.3366 17.8144 12.3026V12.2913C18.5347 11.14 18.9146 9.81298 18.9203 8.4519C18.9316 6.47267 18.166 4.60686 16.7653 3.19474ZM11.5081 11.123C9.92017 11.123 8.63282 9.83566 8.63282 8.24774C8.63282 6.65981 9.92017 5.37246 11.5081 5.37246C13.096 5.37246 14.3834 6.65981 14.3834 8.24774C14.3834 9.83566 13.096 11.123 11.5081 11.123Z" fill="black"/>
</svg>
