<svg width="17" height="22" viewBox="0 0 17 22" fill="none" xmlns="http://www.w3.org/2000/svg">
<path d="M3.65614 1.4205L4.82314 1.0695C5.46243 0.87672 6.15002 0.923126 6.75761 1.20006C7.3652 1.47699 7.85128 1.96552 8.12514 2.5745L9.02714 4.5805C9.26261 5.1043 9.32817 5.68867 9.21465 6.25163C9.10113 6.81459 8.8142 7.32789 8.39414 7.7195L6.89914 9.1125C6.85547 9.15319 6.8278 9.20817 6.82114 9.2675C6.77714 9.6645 7.04614 10.4375 7.66714 11.5125C8.11714 12.2935 8.52614 12.8425 8.87314 13.1495C9.11614 13.3645 9.24914 13.4105 9.30614 13.3945L11.3161 12.7795C11.8651 12.6116 12.4527 12.6197 12.9968 12.8026C13.5409 12.9855 14.0141 13.3341 14.3501 13.7995L15.6301 15.5755C16.0198 16.1155 16.2003 16.7785 16.1382 17.4415C16.076 18.1045 15.7754 18.7224 15.2921 19.1805L14.4051 20.0205C13.9349 20.4658 13.3574 20.7817 12.7288 20.9375C12.1001 21.0933 11.4419 21.0837 10.8181 20.9095C8.06414 20.1405 5.59514 17.8165 3.38314 13.9855C1.16914 10.1495 0.39114 6.8455 1.10914 4.0725C1.27032 3.44883 1.58943 2.8772 2.03571 2.41269C2.482 1.94819 3.03942 1.60648 3.65614 1.4205ZM4.09014 2.8575C3.72003 2.9688 3.38483 3.17357 3.11684 3.45206C2.84886 3.73055 2.65713 4.07338 2.56014 4.4475C1.95814 6.7795 2.64714 9.7085 4.68314 13.2355C6.71714 16.7575 8.90614 18.8185 11.2231 19.4655C11.5974 19.5699 11.9924 19.5756 12.3695 19.482C12.7466 19.3884 13.0931 19.1988 13.3751 18.9315L14.2611 18.0915C14.481 17.8833 14.6177 17.6024 14.646 17.3009C14.6744 16.9995 14.5923 16.698 14.4151 16.4525L13.1351 14.6775C12.9824 14.4657 12.7672 14.3071 12.5197 14.2238C12.2722 14.1406 12.0048 14.137 11.7551 14.2135L9.74014 14.8305C8.57014 15.1785 7.50914 14.2375 6.36914 12.2625C5.59914 10.9325 5.24114 9.9025 5.33114 9.1015C5.37714 8.6855 5.57114 8.3015 5.87614 8.0155L7.37114 6.6225C7.56199 6.44439 7.6923 6.211 7.74377 5.95508C7.79524 5.69915 7.7653 5.43354 7.65814 5.1955L6.75714 3.1895C6.63264 2.91268 6.41167 2.69063 6.13548 2.56477C5.85928 2.43891 5.54673 2.41784 5.25614 2.5055L4.09014 2.8575Z" fill="white"/>
</svg>
