<svg width="20" height="20" viewBox="0 0 20 20" fill="none" xmlns="http://www.w3.org/2000/svg">
<path d="M9.25803 4.00792L5.18303 6.26992C4.86522 6.44725 4.60063 6.70637 4.4167 7.02042C4.23278 7.33446 4.13622 7.69199 4.13703 8.05592V12.4439C4.13622 12.8079 4.23278 13.1654 4.4167 13.4794C4.60063 13.7935 4.86522 14.0526 5.18303 14.2299L9.25803 16.4919C9.5614 16.6608 9.90284 16.7494 10.25 16.7494C10.5972 16.7494 10.9387 16.6608 11.242 16.4919L15.317 14.2299C15.6348 14.0526 15.8994 13.7935 16.0834 13.4794C16.2673 13.1654 16.3638 12.8079 16.363 12.4439V8.05592C16.3638 7.69199 16.2673 7.33446 16.0834 7.02042C15.8994 6.70637 15.6348 6.44725 15.317 6.26992L11.242 4.00792C10.9387 3.8391 10.5972 3.75049 10.25 3.75049C9.90284 3.75049 9.5614 3.8391 9.25803 4.00792Z" stroke="white"/>
<path d="M15.949 6.8269L10.25 10.2499M10.25 10.2499L4.55103 6.8269M10.25 10.2499V16.7439" stroke="white"/>
<path d="M19.5 6.139V4.083C19.5 3.26534 19.1752 2.48116 18.597 1.90299C18.0188 1.32482 17.2347 1 16.417 1H13.333M13.333 19.5H16.417C17.2347 19.5 18.0188 19.1752 18.597 18.597C19.1752 18.0188 19.5 17.2347 19.5 16.417V14.36M1 14.361V16.417C1 17.2347 1.32482 18.0188 1.90299 18.597C2.48116 19.1752 3.26534 19.5 4.083 19.5H7.167M7.167 1H4.083C3.26534 1 2.48116 1.32482 1.90299 1.90299C1.32482 2.48116 1 3.26534 1 4.083V6.14" stroke="white" stroke-linecap="round" stroke-linejoin="round"/>
</svg>
